#!OML:ASF X:\für Bonn\!DataBase\2005_08_10_Bjorn_Final\c3d\bjorn.ASF
:FULLY-SPECIFIED
:DEGREES
61
root 4.18613 23.4093 -15.3014 2.01687 -5.38413 362.733
lowerback -4.40175 1.49008 1.53307
upperback 4.89915 1.89031 -0.237236
thorax 7.65749 1.02081 -0.899948
lowerneck -6.61149 -1.05093 1.96758
upperneck -1.78544 -1.52906 -3.06293
head 0.514121 -0.810298 -1.3148
rclavicle 2.49475e-014 9.54166e-015
rhumerus -53.8389 -13.709 -55.5304
rradius 120.373
rwrist -9.56018
rhand -12.3749 11.7406
rfingers 7.12502
rthumb 13.6958 -17.7888
lclavicle 2.49475e-014 9.54166e-015
lhumerus -49.8485 2.04852 59.6745
lradius 96.0827
lwrist 13.3535
lhand -23.001 -17.7392
lfingers 7.12502
lthumb 3.44215 12.2128
rfemur -14.7302 -6.9049 14.7253
rtibia 31.9577
rfoot 14.5381 8.92396
rtoes -17.2753
lfemur -16.5175 13.7934 -20.959
ltibia 31.6325
lfoot 11.1206 -1.86627
ltoes -25.8037
62
root 4.17926 23.303 -15.1178 1.83694 -5.45121 362.683
lowerback -4.2891 1.503 1.5126
upperback 5.10589 1.90829 -0.211469
thorax 7.81311 1.02965 -0.859099
lowerneck -6.92154 -1.05785 1.85488
upperneck -1.8636 -1.53607 -2.95816
head 0.54258 -0.814167 -1.26506
rclavicle -3.57812e-015 -1.07344e-014
rhumerus -55.0963 -13.1975 -55.4395
rradius 120.641
rwrist -7.54929
rhand -12.3952 12.2509
rfingers 7.12502
rthumb 13.6762 -17.2798
lclavicle -3.57812e-015 -1.07344e-014
lhumerus -51.0487 1.74463 60.0425
lradius 95.7517
lwrist 11.5672
lhand -23.1116 -18.3646
lfingers 7.12502
lthumb 3.33536 11.589
rfemur -14.6307 -6.58129 14.7325
rtibia 31.7499
rfoot 14.5206 8.97986
rtoes -16.0674
lfemur -16.7037 13.6063 -20.836
ltibia 31.4387
lfoot 10.9363 -1.76866
ltoes -26.2405
63
root 4.17278 23.186 -14.9315 1.74047 -5.55912 362.659
lowerback -4.30465 1.53461 1.47927
upperback 5.2888 1.9519 -0.204841
thorax 8.01945 1.05077 -0.825092
lowerneck -7.21618 -1.05148 1.81195
upperneck -1.92973 -1.52939 -2.91726
head 0.572054 -0.812113 -1.24729
rclavicle 2.5842e-015 1.98785e-014
rhumerus -56.5381 -12.8703 -55.3219
rradius 120.796
rwrist -5.43541
rhand -12.8344 12.7085
rfingers 7.12502
rthumb 13.2528 -16.8502
lclavicle 2.5842e-015 1.98785e-014
lhumerus -52.3389 1.52788 60.4085
lradius 95.1797
lwrist 9.32233
lhand -23.5765 -19.2718
lfingers 7.12502
lthumb 2.88633 10.6884
rfemur -14.5691 -6.19913 14.7142
rtibia 31.4765
rfoot 14.6311 9.01242
rtoes -14.3108
lfemur -16.9741 13.408 -20.749
ltibia 31.3334
lfoot 10.719 -1.71474
ltoes -26.3885
64
root 4.16599 23.0556 -14.7419 1.6409 -5.65274 362.657
lowerback -4.38956 1.56759 1.41126
upperback 5.51753 1.99925 -0.198658
thorax 8.31552 1.07194 -0.768783
lowerneck -7.60369 -1.06035 1.7709
upperneck -1.97404 -1.54357 -2.86923
head 0.623583 -0.8211 -1.22945
rclavicle -3.27995e-015 2.26615e-014
rhumerus -58.0347 -12.8188 -55.1054
rradius 120.807
rwrist -3.49537
rhand -13.3589 13.1405
rfingers 7.12502
rthumb 12.7472 -16.4504
lclavicle -3.27995e-015 2.26615e-014
lhumerus -53.609 1.41525 60.771
lradius 94.4624
lwrist 6.9652
lhand -24.0018 -19.9212
lfingers 7.12502
lthumb 2.4756 10.0442
rfemur -14.4357 -5.90752 14.6717
rtibia 31.1662
rfoot 14.9136 9.08177
rtoes -12.0626
lfemur -17.2603 13.2815 -20.6683
ltibia 31.3396
lfoot 10.5447 -1.82299
ltoes -26.1745
65
root 4.15974 22.9098 -14.5502 1.50541 -5.75919 362.68
lowerback -4.47583 1.59793 1.34095
upperback 5.76836 2.04454 -0.205543
thorax 8.6379 1.09219 -0.724443
lowerneck -8.00214 -1.0676 1.71262
upperneck -2.03205 -1.55431 -2.80493
head 0.672936 -0.827989 -1.2035
rclavicle 4.90004e-014 8.34896e-015
rhumerus -59.6059 -13.0059 -54.7878
rradius 120.698
rwrist -1.96745
rhand -13.9044 13.4911
rfingers 7.12502
rthumb 12.2213 -16.1319
lclavicle 4.90004e-014 8.34896e-015
lhumerus -54.9524 1.3956 61.1311
lradius 93.6484
lwrist 4.92569
lhand -24.0825 -20.2674
lfingers 7.12502
lthumb 2.39768 9.69885
rfemur -14.2575 -5.64885 14.5896
rtibia 30.9232
rfoot 15.2948 9.18831
rtoes -9.33757
lfemur -17.4951 13.086 -20.5942
ltibia 31.3975
lfoot 10.4056 -1.87575
ltoes -25.5395
66
root 4.15301 22.7478 -14.3559 1.34586 -5.85189 362.702
lowerback -4.59138 1.62301 1.25066
upperback 6.0529 2.08409 -0.206183
thorax 9.01468 1.10787 -0.66128
lowerneck -8.40002 -1.0679 1.68731
upperneck -2.12417 -1.55878 -2.77742
head 0.711405 -0.832258 -1.19443
rclavicle 5.86415e-015 -7.15625e-015
rhumerus -61.2141 -13.4635 -54.3656
rradius 120.259
rwrist -0.8196
rhand -14.6311 14.1021
rfingers 7.12502
rthumb 11.5205 -15.5613
lclavicle 5.86415e-015 -7.15625e-015
lhumerus -56.2913 1.43062 61.4868
lradius 92.8066
lwrist 3.55497
lhand -24.4658 -20.246
lfingers 7.12502
lthumb 2.02752 9.72414
rfemur -14.0693 -5.36218 14.5023
rtibia 30.7941
rfoot 15.5938 9.57188
rtoes -7.92567
lfemur -17.6795 12.9436 -20.5052
ltibia 31.4644
lfoot 10.3288 -2.03387
ltoes -24.9331
67
root 4.14678 22.571 -14.1604 1.16108 -5.95679 362.747
lowerback -4.68815 1.65936 1.14767
upperback 6.34643 2.14104 -0.209416
thorax 9.39211 1.13065 -0.591591
lowerneck -8.84401 -1.07644 1.70056
upperneck -2.18074 -1.57707 -2.80918
head 0.768376 -0.844986 -1.21221
rclavicle 9.44227e-015 1.19271e-015
rhumerus -62.973 -14.069 -53.7596
rradius 119.579
rwrist -0.320079
rhand -15.7389 15.0861
rfingers 7.12502
rthumb 10.4521 -14.6341
lclavicle 9.44227e-015 1.19271e-015
lhumerus -57.6387 1.44367 62.0015
lradius 91.8419
lwrist 3.399
lhand -25.4695 -20.5028
lfingers 7.12502
lthumb 1.05814 9.4743
rfemur -13.9122 -5.06237 14.3775
rtibia 30.8233
rfoot 15.6705 10.0447
rtoes -6.99984
lfemur -17.7676 12.739 -20.4253
ltibia 31.4866
lfoot 10.3247 -2.084
ltoes -23.8194
